<svg width="87" height="20" viewBox="0 0 87 20" fill="none" xmlns="http://www.w3.org/2000/svg">
<path d="M6.3994 4.051V0.21H7.7104V4.051H6.3994ZM6.3994 18.219V14.24H7.7104V18.219H6.3994ZM6.9974 15.436C6.15406 15.436 5.39506 15.344 4.7204 15.16C4.04573 14.976 3.47073 14.723 2.9954 14.401C2.52006 14.0637 2.15206 13.665 1.8914 13.205C1.64606 12.745 1.5234 12.2237 1.5234 11.641C1.5234 11.5797 1.5234 11.5183 1.5234 11.457C1.5234 11.3957 1.53106 11.3497 1.5464 11.319H4.6284C4.6284 11.3497 4.6284 11.3803 4.6284 11.411C4.6284 11.4417 4.6284 11.4723 4.6284 11.503C4.64373 11.8863 4.7664 12.2007 4.9964 12.446C5.2264 12.676 5.5254 12.8447 5.8934 12.952C6.27673 13.0593 6.6754 13.113 7.0894 13.113C7.4574 13.113 7.81006 13.0823 8.1474 13.021C8.50006 12.9443 8.7914 12.814 9.0214 12.63C9.26673 12.446 9.3894 12.2083 9.3894 11.917C9.3894 11.549 9.23606 11.2653 8.9294 11.066C8.63806 10.8667 8.24706 10.7057 7.7564 10.583C7.28106 10.4603 6.75973 10.3223 6.1924 10.169C5.67106 10.0463 5.14973 9.90833 4.6284 9.755C4.10706 9.58633 3.63173 9.37167 3.2024 9.111C2.7884 8.85033 2.45106 8.513 2.1904 8.099C1.92973 7.66967 1.7994 7.133 1.7994 6.489C1.7994 5.86033 1.9374 5.316 2.2134 4.856C2.4894 4.38067 2.86506 3.98967 3.3404 3.683C3.83106 3.37633 4.3984 3.154 5.0424 3.016C5.70173 2.86267 6.40706 2.786 7.1584 2.786C7.86373 2.786 8.52306 2.86267 9.1364 3.016C9.74973 3.154 10.2864 3.36867 10.7464 3.66C11.2064 3.936 11.5667 4.28867 11.8274 4.718C12.0881 5.132 12.2184 5.59967 12.2184 6.121C12.2184 6.22833 12.2184 6.328 12.2184 6.42C12.2184 6.512 12.2107 6.57333 12.1954 6.604H9.1364V6.42C9.1364 6.144 9.05206 5.914 8.8834 5.73C8.71473 5.53067 8.4694 5.37733 8.1474 5.27C7.84073 5.16267 7.46506 5.109 7.0204 5.109C6.71373 5.109 6.43006 5.132 6.1694 5.178C5.92406 5.224 5.7094 5.293 5.5254 5.385C5.3414 5.477 5.19573 5.592 5.0884 5.73C4.9964 5.85267 4.9504 6.006 4.9504 6.19C4.9504 6.45067 5.05773 6.66533 5.2724 6.834C5.5024 6.98733 5.8014 7.11767 6.1694 7.225C6.5374 7.33233 6.94373 7.44733 7.3884 7.57C7.9404 7.72333 8.5154 7.87667 9.1134 8.03C9.72673 8.168 10.2941 8.35967 10.8154 8.605C11.3367 8.85033 11.7584 9.203 12.0804 9.663C12.4024 10.1077 12.5634 10.7133 12.5634 11.48C12.5634 12.216 12.4177 12.837 12.1264 13.343C11.8504 13.849 11.4594 14.2553 10.9534 14.562C10.4474 14.8687 9.85706 15.091 9.1824 15.229C8.50773 15.367 7.7794 15.436 6.9974 15.436ZM20.2837 17.276C19.0877 17.276 18.045 17.069 17.1557 16.655C16.2817 16.2257 15.607 15.62 15.1317 14.838C14.6563 14.056 14.4187 13.1283 14.4187 12.055H17.5697C17.5697 12.5917 17.6693 13.0747 17.8687 13.504C18.0833 13.918 18.39 14.24 18.7887 14.47C19.1873 14.6847 19.655 14.792 20.1917 14.792C20.713 14.792 21.1577 14.677 21.5257 14.447C21.909 14.217 22.208 13.8873 22.4227 13.458C22.6373 13.0133 22.7447 12.469 22.7447 11.825C22.7447 11.227 22.6373 10.7287 22.4227 10.33C22.2233 9.916 21.932 9.60933 21.5487 9.41C21.1807 9.19533 20.7437 9.088 20.2377 9.088C19.839 9.088 19.4863 9.157 19.1797 9.295C18.8883 9.41767 18.6353 9.571 18.4207 9.755C18.206 9.939 18.022 10.1383 17.8687 10.353L14.9937 9.985L15.6377 1.222H25.1137V4.051H18.3057L18.0527 7.616C18.2213 7.49333 18.4437 7.363 18.7197 7.225C18.9957 7.087 19.333 6.96433 19.7317 6.857C20.1457 6.73433 20.621 6.673 21.1577 6.673C22.0777 6.673 22.898 6.86467 23.6187 7.248C24.3547 7.63133 24.9373 8.20633 25.3667 8.973C25.796 9.72433 26.0107 10.6827 26.0107 11.848C26.0107 12.9673 25.773 13.9333 25.2977 14.746C24.8377 15.5587 24.1783 16.1873 23.3197 16.632C22.4763 17.0613 21.4643 17.276 20.2837 17.276ZM33.9394 17.276C32.9887 17.276 32.153 17.138 31.4324 16.862C30.7117 16.5707 30.106 16.1107 29.6154 15.482C29.14 14.838 28.7797 13.9947 28.5344 12.952C28.3044 11.9093 28.1894 10.629 28.1894 9.111C28.1894 7.57767 28.3044 6.29733 28.5344 5.27C28.7797 4.22733 29.14 3.384 29.6154 2.74C30.106 2.096 30.7117 1.636 31.4324 1.36C32.153 1.084 32.9887 0.946 33.9394 0.946C34.9054 0.946 35.741 1.084 36.4464 1.36C37.1517 1.636 37.742 2.096 38.2174 2.74C38.708 3.384 39.0684 4.22733 39.2984 5.27C39.5437 6.29733 39.6664 7.57767 39.6664 9.111C39.6664 10.629 39.5437 11.9093 39.2984 12.952C39.0684 13.9947 38.708 14.838 38.2174 15.482C37.742 16.1107 37.1517 16.5707 36.4464 16.862C35.741 17.138 34.9054 17.276 33.9394 17.276ZM33.9394 14.792C34.614 14.792 35.1277 14.6157 35.4804 14.263C35.833 13.895 36.0784 13.343 36.2164 12.607C36.3544 11.871 36.4234 10.951 36.4234 9.847V8.421C36.4234 7.30167 36.3544 6.374 36.2164 5.638C36.0784 4.88667 35.833 4.327 35.4804 3.959C35.1277 3.591 34.614 3.407 33.9394 3.407C33.2647 3.407 32.7434 3.591 32.3754 3.959C32.0227 4.327 31.7774 4.879 31.6394 5.615C31.5014 6.33567 31.4324 7.25567 31.4324 8.375V9.801C31.4324 10.9203 31.5014 11.8557 31.6394 12.607C31.7774 13.343 32.0227 13.895 32.3754 14.263C32.7434 14.6157 33.2647 14.792 33.9394 14.792ZM47.6181 17.276C46.6674 17.276 45.8318 17.138 45.1111 16.862C44.3904 16.5707 43.7848 16.1107 43.2941 15.482C42.8188 14.838 42.4584 13.9947 42.2131 12.952C41.9831 11.9093 41.8681 10.629 41.8681 9.111C41.8681 7.57767 41.9831 6.29733 42.2131 5.27C42.4584 4.22733 42.8188 3.384 43.2941 2.74C43.7848 2.096 44.3904 1.636 45.1111 1.36C45.8318 1.084 46.6674 0.946 47.6181 0.946C48.5841 0.946 49.4198 1.084 50.1251 1.36C50.8304 1.636 51.4208 2.096 51.8961 2.74C52.3868 3.384 52.7471 4.22733 52.9771 5.27C53.2224 6.29733 53.3451 7.57767 53.3451 9.111C53.3451 10.629 53.2224 11.9093 52.9771 12.952C52.7471 13.9947 52.3868 14.838 51.8961 15.482C51.4208 16.1107 50.8304 16.5707 50.1251 16.862C49.4198 17.138 48.5841 17.276 47.6181 17.276ZM47.6181 14.792C48.2928 14.792 48.8064 14.6157 49.1591 14.263C49.5118 13.895 49.7571 13.343 49.8951 12.607C50.0331 11.871 50.1021 10.951 50.1021 9.847V8.421C50.1021 7.30167 50.0331 6.374 49.8951 5.638C49.7571 4.88667 49.5118 4.327 49.1591 3.959C48.8064 3.591 48.2928 3.407 47.6181 3.407C46.9434 3.407 46.4221 3.591 46.0541 3.959C45.7014 4.327 45.4561 4.879 45.3181 5.615C45.1801 6.33567 45.1111 7.25567 45.1111 8.375V9.801C45.1111 10.9203 45.1801 11.8557 45.3181 12.607C45.4561 13.343 45.7014 13.895 46.0541 14.263C46.4221 14.6157 46.9434 14.792 47.6181 14.792ZM54.4428 17.539L56.6978 8.915H57.7428L55.4878 17.539H54.4428ZM58.5767 17V9.454H60.0837L63.1197 13.524C63.1637 13.5753 63.2187 13.6487 63.2847 13.744C63.3507 13.832 63.413 13.92 63.4717 14.008C63.5303 14.096 63.5707 14.1657 63.5927 14.217H63.6477C63.6477 14.0923 63.6477 13.9713 63.6477 13.854C63.6477 13.7293 63.6477 13.6193 63.6477 13.524V9.454H65.1987V17H63.6917L60.5897 12.831C60.5163 12.7283 60.4393 12.6147 60.3587 12.49C60.278 12.3653 60.2193 12.27 60.1827 12.204H60.1277C60.1277 12.314 60.1277 12.424 60.1277 12.534C60.1277 12.6367 60.1277 12.7357 60.1277 12.831V17H58.5767ZM66.7376 10.367V9.047H68.2666V10.367H66.7376ZM66.7376 17V11.214H68.2666V17H66.7376ZM70.6162 19.068C70.3596 19.068 70.1176 19.013 69.8902 18.903C69.6629 18.8003 69.4796 18.6463 69.3402 18.441C69.2009 18.2357 69.1312 17.99 69.1312 17.704C69.1312 17.3813 69.2229 17.1247 69.4062 16.934C69.5969 16.736 69.8096 16.5893 70.0442 16.494C69.8756 16.3987 69.7362 16.274 69.6262 16.12C69.5236 15.966 69.4722 15.7863 69.4722 15.581C69.4722 15.295 69.5749 15.064 69.7802 14.888C69.9929 14.7047 70.2349 14.5873 70.5062 14.536C70.2349 14.3673 70.0222 14.1547 69.8682 13.898C69.7216 13.634 69.6482 13.3407 69.6482 13.018C69.6482 12.6 69.7509 12.248 69.9562 11.962C70.1689 11.676 70.4696 11.4597 70.8582 11.313C71.2542 11.159 71.7199 11.082 72.2552 11.082C72.4679 11.082 72.6659 11.093 72.8492 11.115C73.0399 11.137 73.2122 11.1737 73.3662 11.225C73.6376 11.0637 73.8209 10.8877 73.9162 10.697C74.0189 10.499 74.0739 10.3413 74.0812 10.224H75.5002C75.5002 10.4953 75.4489 10.73 75.3462 10.928C75.2509 11.126 75.1116 11.291 74.9282 11.423C74.7449 11.5477 74.5249 11.6393 74.2682 11.698C74.4589 11.8593 74.6056 12.0537 74.7082 12.281C74.8109 12.5083 74.8622 12.754 74.8622 13.018C74.8622 13.4287 74.7632 13.7807 74.5652 14.074C74.3672 14.36 74.0849 14.58 73.7182 14.734C73.3589 14.888 72.9262 14.965 72.4202 14.965H71.5402C71.3642 14.965 71.2322 14.998 71.1442 15.064C71.0562 15.1227 71.0122 15.2107 71.0122 15.328C71.0122 15.4233 71.0489 15.5077 71.1222 15.581C71.2029 15.647 71.3312 15.68 71.5072 15.68H73.9162C74.4002 15.68 74.7852 15.8303 75.0712 16.131C75.3646 16.4243 75.5112 16.802 75.5112 17.264C75.5112 17.616 75.4196 17.9277 75.2362 18.199C75.0529 18.4703 74.7999 18.683 74.4772 18.837C74.1546 18.991 73.7842 19.068 73.3662 19.068H70.6162ZM71.2542 18.045H73.2892C73.4212 18.045 73.5386 18.0193 73.6412 17.968C73.7439 17.924 73.8246 17.858 73.8832 17.77C73.9419 17.6893 73.9712 17.594 73.9712 17.484C73.9712 17.2933 73.9126 17.1503 73.7952 17.055C73.6779 16.9597 73.5312 16.912 73.3552 16.912H71.2542C71.0782 16.912 70.9316 16.9633 70.8142 17.066C70.7042 17.1687 70.6492 17.3043 70.6492 17.473C70.6492 17.6417 70.7042 17.7773 70.8142 17.88C70.9316 17.99 71.0782 18.045 71.2542 18.045ZM72.2552 13.975C72.6146 13.975 72.8859 13.8943 73.0692 13.733C73.2599 13.5643 73.3552 13.326 73.3552 13.018C73.3552 12.71 73.2599 12.4753 73.0692 12.314C72.8859 12.1453 72.6146 12.061 72.2552 12.061C71.9032 12.061 71.6319 12.1453 71.4412 12.314C71.2579 12.4753 71.1662 12.71 71.1662 13.018C71.1662 13.216 71.2066 13.3883 71.2872 13.535C71.3679 13.6817 71.4889 13.7917 71.6502 13.865C71.8116 13.9383 72.0132 13.975 72.2552 13.975ZM76.3519 17V9.047H77.8809V11.852H77.9579C78.0825 11.698 78.2292 11.566 78.3979 11.456C78.5739 11.3387 78.7682 11.247 78.9809 11.181C79.2009 11.115 79.4392 11.082 79.6959 11.082C80.0772 11.082 80.4109 11.1517 80.6969 11.291C80.9829 11.4303 81.2029 11.6503 81.3569 11.951C81.5182 12.2517 81.5989 12.644 81.5989 13.128V17H80.0699V13.37C80.0699 13.1867 80.0479 13.0327 80.0039 12.908C79.9599 12.776 79.8939 12.6697 79.8059 12.589C79.7252 12.501 79.6225 12.4387 79.4979 12.402C79.3732 12.3653 79.2339 12.347 79.0799 12.347C78.8525 12.347 78.6472 12.402 78.4639 12.512C78.2805 12.622 78.1375 12.7723 78.0349 12.963C77.9322 13.1537 77.8809 13.3737 77.8809 13.623V17H76.3519ZM84.6961 17.132C84.3294 17.132 84.0324 17.066 83.8051 16.934C83.5777 16.802 83.4127 16.626 83.3101 16.406C83.2074 16.1787 83.1561 15.9293 83.1561 15.658V12.391H82.4411V11.214H83.2111L83.4971 9.564H84.6851V11.214H85.7411V12.391H84.6851V15.405C84.6851 15.581 84.7254 15.7167 84.8061 15.812C84.8867 15.9 85.0187 15.944 85.2021 15.944H85.7411V16.956C85.6531 16.9853 85.5504 17.011 85.4331 17.033C85.3157 17.0623 85.1911 17.0843 85.0591 17.099C84.9271 17.121 84.8061 17.132 84.6961 17.132Z" fill="#BEAD8E"/>
<path d="M0.626396 11.25H54.4491V12.4H0.626396V11.25Z" fill="#BEAD8E"/>
<path d="M54.4428 14.25H86.0271V14.8H54.4428V14.25Z" fill="#BEAD8E"/>
</svg>
