<svg width="104" height="25" viewBox="0 0 104 25" fill="none" xmlns="http://www.w3.org/2000/svg">
<path d="M7.09502 5.46547V0.455468H8.80502V5.46547H7.09502ZM7.09502 23.9455V18.7555H8.80502V23.9455H7.09502ZM7.87502 20.3155C6.77502 20.3155 5.78502 20.1955 4.90502 19.9555C4.02502 19.7155 3.27502 19.3855 2.65502 18.9655C2.03502 18.5255 1.55502 18.0055 1.21502 17.4055C0.895018 16.8055 0.735018 16.1255 0.735018 15.3655C0.735018 15.2855 0.735018 15.2055 0.735018 15.1255C0.735018 15.0455 0.745018 14.9855 0.765018 14.9455H4.78502C4.78502 14.9855 4.78502 15.0255 4.78502 15.0655C4.78502 15.1055 4.78502 15.1455 4.78502 15.1855C4.80502 15.6855 4.96502 16.0955 5.26502 16.4155C5.56502 16.7155 5.95502 16.9355 6.43502 17.0755C6.93502 17.2155 7.45502 17.2855 7.99502 17.2855C8.47502 17.2855 8.93502 17.2455 9.37502 17.1655C9.83502 17.0655 10.215 16.8955 10.515 16.6555C10.835 16.4155 10.995 16.1055 10.995 15.7255C10.995 15.2455 10.795 14.8755 10.395 14.6155C10.015 14.3555 9.50502 14.1455 8.86502 13.9855C8.24502 13.8255 7.56502 13.6455 6.82502 13.4455C6.14502 13.2855 5.46502 13.1055 4.78502 12.9055C4.10502 12.6855 3.48502 12.4055 2.92502 12.0655C2.38502 11.7255 1.94502 11.2855 1.60502 10.7455C1.26502 10.1855 1.09502 9.48547 1.09502 8.64547C1.09502 7.82547 1.27502 7.11547 1.63502 6.51547C1.99502 5.89547 2.48502 5.38547 3.10502 4.98547C3.74502 4.58547 4.48502 4.29547 5.32502 4.11547C6.18502 3.91547 7.10502 3.81547 8.08502 3.81547C9.00502 3.81547 9.86502 3.91547 10.665 4.11547C11.465 4.29547 12.165 4.57547 12.765 4.95547C13.365 5.31547 13.835 5.77547 14.175 6.33547C14.515 6.87547 14.685 7.48547 14.685 8.16547C14.685 8.30547 14.685 8.43547 14.685 8.55547C14.685 8.67547 14.675 8.75547 14.655 8.79547H10.665V8.55547C10.665 8.19547 10.555 7.89547 10.335 7.65547C10.115 7.39547 9.79502 7.19547 9.37502 7.05547C8.97502 6.91547 8.48502 6.84547 7.90502 6.84547C7.50502 6.84547 7.13502 6.87547 6.79502 6.93547C6.47502 6.99547 6.19502 7.08547 5.95502 7.20547C5.71502 7.32547 5.52502 7.47547 5.38502 7.65547C5.26502 7.81547 5.20502 8.01547 5.20502 8.25547C5.20502 8.59547 5.34502 8.87547 5.62502 9.09547C5.92502 9.29547 6.31502 9.46547 6.79502 9.60547C7.27502 9.74547 7.80502 9.89547 8.38502 10.0555C9.10502 10.2555 9.85502 10.4555 10.635 10.6555C11.435 10.8355 12.175 11.0855 12.855 11.4055C13.535 11.7255 14.085 12.1855 14.505 12.7855C14.925 13.3655 15.135 14.1555 15.135 15.1555C15.135 16.1155 14.945 16.9255 14.565 17.5855C14.205 18.2455 13.695 18.7755 13.035 19.1755C12.375 19.5755 11.605 19.8655 10.725 20.0455C9.84502 20.2255 8.89502 20.3155 7.87502 20.3155ZM25.2349 22.7155C23.5549 22.7155 22.1449 22.4555 21.0049 21.9355C19.8649 21.4155 19.0049 20.6955 18.4249 19.7755C17.8449 18.8555 17.5549 17.7955 17.5549 16.5955V16.0855H21.6049V16.6555C21.6049 17.5355 21.8949 18.2255 22.4749 18.7255C23.0749 19.2255 23.9349 19.4755 25.0549 19.4755C26.1349 19.4755 26.9749 19.2255 27.5749 18.7255C28.1749 18.2255 28.4749 17.4555 28.4749 16.4155C28.4749 15.6355 28.3149 15.0355 27.9949 14.6155C27.6749 14.1955 27.2549 13.8955 26.7349 13.7155C26.2349 13.5355 25.6849 13.4455 25.0849 13.4455H23.2549V10.2955H25.0549C25.6149 10.2955 26.1149 10.1955 26.5549 9.99547C27.0149 9.77547 27.3749 9.45547 27.6349 9.03547C27.9149 8.61547 28.0549 8.07547 28.0549 7.41547C28.0549 6.79547 27.9249 6.28547 27.6649 5.88547C27.4249 5.46547 27.0749 5.15547 26.6149 4.95547C26.1749 4.75547 25.6649 4.65547 25.0849 4.65547C24.5049 4.65547 23.9749 4.75547 23.4949 4.95547C23.0349 5.15547 22.6749 5.45547 22.4149 5.85547C22.1549 6.25547 22.0249 6.75547 22.0249 7.35547V7.80547H18.0349V7.05547C18.0349 5.93547 18.3249 4.95547 18.9049 4.11547C19.5049 3.25547 20.3449 2.59547 21.4249 2.13547C22.5049 1.65547 23.7549 1.41547 25.1749 1.41547C26.5949 1.41547 27.8349 1.63547 28.8949 2.07547C29.9749 2.51547 30.8049 3.16547 31.3849 4.02547C31.9849 4.86547 32.2849 5.86547 32.2849 7.02547C32.2849 7.80547 32.1349 8.49547 31.8349 9.09547C31.5549 9.69547 31.1749 10.2055 30.6949 10.6255C30.2149 11.0255 29.6649 11.3655 29.0449 11.6455V11.7655C30.1249 12.0855 31.0049 12.6755 31.6849 13.5355C32.3849 14.3755 32.7349 15.4655 32.7349 16.8055C32.7149 18.0055 32.3949 19.0455 31.7749 19.9255C31.1749 20.8055 30.3149 21.4955 29.1949 21.9955C28.0749 22.4755 26.7549 22.7155 25.2349 22.7155ZM44.246 22.3555V17.8555H34.976V14.5255C35.756 13.2855 36.486 11.9755 37.166 10.5955C37.846 9.21547 38.476 7.75547 39.056 6.21547C39.656 4.67547 40.156 3.07547 40.556 1.41547H44.846C44.626 2.37547 44.316 3.38547 43.916 4.44547C43.536 5.50547 43.096 6.55547 42.596 7.59547C42.096 8.63547 41.586 9.61547 41.066 10.5355C40.566 11.4355 40.086 12.2355 39.626 12.9355C39.166 13.6355 38.776 14.1655 38.456 14.5255H44.246V9.54547C44.446 9.16547 44.646 8.75547 44.846 8.31547C45.066 7.85547 45.276 7.39547 45.476 6.93547C45.676 6.45547 45.856 5.98547 46.016 5.52547C46.196 5.06547 46.336 4.63547 46.436 4.23547H48.356V14.5255H50.996V17.8555H48.356V22.3555H44.246ZM60.9764 22.7155C59.4164 22.7155 58.0564 22.4455 56.8964 21.9055C55.7564 21.3455 54.8764 20.5555 54.2564 19.5355C53.6364 18.5155 53.3264 17.3055 53.3264 15.9055H57.4364C57.4364 16.6055 57.5664 17.2355 57.8264 17.7955C58.1064 18.3355 58.5064 18.7555 59.0264 19.0555C59.5464 19.3355 60.1564 19.4755 60.8564 19.4755C61.5364 19.4755 62.1164 19.3255 62.5964 19.0255C63.0964 18.7255 63.4864 18.2955 63.7664 17.7355C64.0464 17.1555 64.1864 16.4455 64.1864 15.6055C64.1864 14.8255 64.0464 14.1755 63.7664 13.6555C63.5064 13.1155 63.1264 12.7155 62.6264 12.4555C62.1464 12.1755 61.5764 12.0355 60.9164 12.0355C60.3964 12.0355 59.9364 12.1255 59.5364 12.3055C59.1564 12.4655 58.8264 12.6655 58.5464 12.9055C58.2664 13.1455 58.0264 13.4055 57.8264 13.6855L54.0764 13.2055L54.9164 1.77547H67.2764V5.46547H58.3964L58.0664 10.1155C58.2864 9.95547 58.5764 9.78547 58.9364 9.60547C59.2964 9.42547 59.7364 9.26547 60.2564 9.12547C60.7964 8.96547 61.4164 8.88547 62.1164 8.88547C63.3164 8.88547 64.3864 9.13547 65.3264 9.63547C66.2864 10.1355 67.0464 10.8855 67.6064 11.8855C68.1664 12.8655 68.4464 14.1155 68.4464 15.6355C68.4464 17.0955 68.1364 18.3555 67.5164 19.4155C66.9164 20.4755 66.0564 21.2955 64.9364 21.8755C63.8364 22.4355 62.5164 22.7155 60.9764 22.7155ZM69.8482 22.9435L72.3082 13.5355H73.4482L70.9882 22.9435H69.8482ZM74.3579 22.3555V14.1235H76.0019L79.3139 18.5635C79.3619 18.6195 79.4219 18.6995 79.4939 18.8035C79.5659 18.8995 79.6339 18.9955 79.6979 19.0915C79.7619 19.1875 79.8059 19.2635 79.8299 19.3195H79.8899C79.8899 19.1835 79.8899 19.0515 79.8899 18.9235C79.8899 18.7875 79.8899 18.6675 79.8899 18.5635V14.1235H81.5819V22.3555H79.9379L76.5539 17.8075C76.4739 17.6955 76.3899 17.5715 76.3019 17.4355C76.2139 17.2995 76.1499 17.1955 76.1099 17.1235H76.0499C76.0499 17.2435 76.0499 17.3635 76.0499 17.4835C76.0499 17.5955 76.0499 17.7035 76.0499 17.8075V22.3555H74.3579ZM83.2608 15.1195V13.6795H84.9288V15.1195H83.2608ZM83.2608 22.3555V16.0435H84.9288V22.3555H83.2608ZM87.492 24.6115C87.212 24.6115 86.948 24.5515 86.7 24.4315C86.452 24.3195 86.252 24.1515 86.1 23.9275C85.948 23.7035 85.872 23.4355 85.872 23.1235C85.872 22.7715 85.972 22.4915 86.172 22.2835C86.38 22.0675 86.612 21.9075 86.868 21.8035C86.684 21.6995 86.532 21.5635 86.412 21.3955C86.3 21.2275 86.244 21.0315 86.244 20.8075C86.244 20.4955 86.356 20.2435 86.58 20.0515C86.812 19.8515 87.076 19.7235 87.372 19.6675C87.076 19.4835 86.844 19.2515 86.676 18.9715C86.516 18.6835 86.436 18.3635 86.436 18.0115C86.436 17.5555 86.548 17.1715 86.772 16.8595C87.004 16.5475 87.332 16.3115 87.756 16.1515C88.188 15.9835 88.696 15.8995 89.28 15.8995C89.512 15.8995 89.728 15.9115 89.928 15.9355C90.136 15.9595 90.324 15.9995 90.492 16.0555C90.788 15.8795 90.988 15.6875 91.092 15.4795C91.204 15.2635 91.264 15.0915 91.272 14.9635H92.82C92.82 15.2595 92.764 15.5155 92.652 15.7315C92.548 15.9475 92.396 16.1275 92.196 16.2715C91.996 16.4075 91.756 16.5075 91.476 16.5715C91.684 16.7475 91.844 16.9595 91.956 17.2075C92.068 17.4555 92.124 17.7235 92.124 18.0115C92.124 18.4595 92.016 18.8435 91.8 19.1635C91.584 19.4755 91.276 19.7155 90.876 19.8835C90.484 20.0515 90.012 20.1355 89.46 20.1355H88.5C88.308 20.1355 88.164 20.1715 88.068 20.2435C87.972 20.3075 87.924 20.4035 87.924 20.5315C87.924 20.6355 87.964 20.7275 88.044 20.8075C88.132 20.8795 88.272 20.9155 88.464 20.9155H91.092C91.62 20.9155 92.04 21.0795 92.352 21.4075C92.672 21.7275 92.832 22.1395 92.832 22.6435C92.832 23.0275 92.732 23.3675 92.532 23.6635C92.332 23.9595 92.056 24.1915 91.704 24.3595C91.352 24.5275 90.948 24.6115 90.492 24.6115H87.492ZM88.188 23.4955H90.408C90.552 23.4955 90.68 23.4675 90.792 23.4115C90.904 23.3635 90.992 23.2915 91.056 23.1955C91.12 23.1075 91.152 23.0035 91.152 22.8835C91.152 22.6755 91.088 22.5195 90.96 22.4155C90.832 22.3115 90.672 22.2595 90.48 22.2595H88.188C87.996 22.2595 87.836 22.3155 87.708 22.4275C87.588 22.5395 87.528 22.6875 87.528 22.8715C87.528 23.0555 87.588 23.2035 87.708 23.3155C87.836 23.4355 87.996 23.4955 88.188 23.4955ZM89.28 19.0555C89.672 19.0555 89.968 18.9675 90.168 18.7915C90.376 18.6075 90.48 18.3475 90.48 18.0115C90.48 17.6755 90.376 17.4195 90.168 17.2435C89.968 17.0595 89.672 16.9675 89.28 16.9675C88.896 16.9675 88.6 17.0595 88.392 17.2435C88.192 17.4195 88.092 17.6755 88.092 18.0115C88.092 18.2275 88.136 18.4155 88.224 18.5755C88.312 18.7355 88.444 18.8555 88.62 18.9355C88.796 19.0155 89.016 19.0555 89.28 19.0555ZM93.749 22.3555V13.6795H95.417V16.7395H95.501C95.637 16.5715 95.797 16.4275 95.981 16.3075C96.173 16.1795 96.385 16.0795 96.617 16.0075C96.857 15.9355 97.117 15.8995 97.397 15.8995C97.813 15.8995 98.177 15.9755 98.489 16.1275C98.801 16.2795 99.041 16.5195 99.209 16.8475C99.385 17.1755 99.473 17.6035 99.473 18.1315V22.3555H97.805V18.3955C97.805 18.1955 97.781 18.0275 97.733 17.8915C97.685 17.7475 97.613 17.6315 97.517 17.5435C97.429 17.4475 97.317 17.3795 97.181 17.3395C97.045 17.2995 96.893 17.2795 96.725 17.2795C96.477 17.2795 96.253 17.3395 96.053 17.4595C95.853 17.5795 95.697 17.7435 95.585 17.9515C95.473 18.1595 95.417 18.3995 95.417 18.6715V22.3555H93.749ZM102.852 22.4995C102.452 22.4995 102.128 22.4275 101.88 22.2835C101.632 22.1395 101.452 21.9475 101.34 21.7075C101.228 21.4595 101.172 21.1875 101.172 20.8915V17.3275H100.392V16.0435H101.232L101.544 14.2435H102.84V16.0435H103.992V17.3275H102.84V20.6155C102.84 20.8075 102.884 20.9555 102.972 21.0595C103.06 21.1555 103.204 21.2035 103.404 21.2035H103.992V22.3075C103.896 22.3395 103.784 22.3675 103.656 22.3915C103.528 22.4235 103.392 22.4475 103.248 22.4635C103.104 22.4875 102.972 22.4995 102.852 22.4995Z" fill="#DE5777"/>
</svg>
